<svg width="16" viewBox="0 0 16 0" fill="none" xmlns="http://www.w3.org/2000/svg">
<g id="telephone-fill">
<path id="telephone-fill_2" fill-rule="evenodd" clip-rule="evenodd" d="M1.88477 -15.4889C2.62689 -16.231 3.85149 -16.1548 4.49583 -15.3264L6.28954 -13.0202C6.6187 -12.597 6.73502 -12.0459 6.60498 -11.5258L6.05772 -9.33671C5.99994 -9.1056 6.06766 -8.86112 6.2361 -8.69268L8.69268 -6.2361C8.86113 -6.06765 9.1056 -5.99994 9.33671 -6.05771L11.5258 -6.60498C12.0459 -6.73501 12.597 -6.6187 13.0202 -6.28953L15.3264 -4.49583C16.1548 -3.85149 16.231 -2.62689 15.4889 -1.88477L14.455 -0.850848C13.7153 -0.111128 12.6089 0.213684 11.5778 -0.148836C9.01754 -1.04895 6.61438 -2.52259 4.56849 -4.56849C2.5226 -6.61438 1.04895 -9.01754 0.148838 -11.5778C-0.213682 -12.6089 0.11113 -13.7153 0.85085 -14.455L1.88477 -15.4889Z" fill="white"/>
</g>
</svg>
